<?xml version="1.0" standalone="no"?>
<!DOCTYPE svg PUBLIC "-//W3C//DTD SVG 20010904//EN"
 "http://www.w3.org/TR/2001/REC-SVG-20010904/DTD/svg10.dtd">
<svg version="1.0" xmlns="http://www.w3.org/2000/svg"
 width="4000.000000pt" height="4000.000000pt" viewBox="0 0 4000.000000 4000.000000"
 preserveAspectRatio="xMidYMid meet">
<metadata>
Created by potrace 1.14, written by Peter Selinger 2001-2017
</metadata>
<g transform="translate(0.000000,4000.000000) scale(0.100000,-0.100000)"
fill="#000000" stroke="none">
<path d="M14026 35760 c-1 -3 -2 -240 -2 -527 l1 -523 -2655 0 c-1460 -1
-4467 -1 -6683 -1 l-4027 0 -1 -22 c-4 -138 0 -24399 4 -24404 4 -3 3009 -7
6679 -8 3670 -1 6675 -3 6678 -4 3 0 5 -237 5 -526 l0 -525 740 0 740 0 0
1795 0 1795 -35 0 c-90 1 -1086 1 -1255 1 l-190 -1 0 -524 c0 -460 -2 -525
-15 -528 -8 -2 -2683 -3 -5945 -3 l-5930 0 0 10735 0 10735 5945 0 5945 0 0
-525 0 -525 735 -2 c404 -1 737 2 740 7 3 4 5 813 5 1797 l0 1788 -738 0
c-406 0 -740 -2 -741 -5z"/>
<path d="M17519 35760 c-1 -3 -2 -811 -3 -1796 l-1 -1792 740 2 740 1 0 1788
c0 984 -2 1792 -5 1796 -6 8 -1469 9 -1471 1z"/>
<path d="M21009 35760 c-1 -3 -2 -811 -3 -1797 l-1 -1792 740 0 740 1 0 1796
0 1797 -738 0 c-405 0 -738 -2 -738 -5z"/>
<path d="M24501 35760 c-4 -3 -7 -811 -6 -1797 l0 -1791 740 1 740 2 1 515 c1
283 2 521 3 528 1 10 1193 12 5943 10 l5943 -3 1 -10725 c0 -5899 -1 -10730
-3 -10735 -4 -11 -11861 -14 -11879 -3 -6 4 -9 205 -9 527 0 515 0 521 -20
521 -29 1 -1405 1 -1435 0 l-25 0 0 -1792 0 -1793 740 0 740 0 0 522 c0 288 2
524 5 524 3 1 3008 3 6678 4 3670 1 6675 5 6679 8 4 5 8 24261 4 24404 l-1 21
-4022 1 c-2213 0 -5220 0 -6683 1 l-2660 0 0 521 c0 286 -2 524 -5 528 -6 8
-1458 9 -1469 1z"/>
<path d="M12101 30390 c-8 -6 -9 -15800 -1 -15801 7 0 15736 0 15775 0 l30 1
0 7900 c0 4345 -2 7901 -5 7901 -16 4 -15793 3 -15799 -1z"/>
<path d="M6729 28437 c0 -18 -1 -350 -2 -739 l-2 -708 30 -1 c39 0 3386 0
3488 0 l77 1 0 739 0 739 -1795 0 -1795 0 -1 -31z"/>
<path d="M29680 27730 l0 -740 58 -1 c354 -3 3524 0 3528 4 4 4 8 1376 5 1458
-1 15 -147 17 -1796 18 l-1795 1 0 -740z"/>
<path d="M6729 24791 c-2 -600 1 -1284 5 -1289 5 -4 3507 -7 3574 -3 9 1 12
156 12 740 l0 738 -1795 0 -1795 0 -1 -186z"/>
<path d="M29682 24237 l3 -740 1788 0 c983 0 1790 3 1793 6 6 5 7 534 5 1303
l-1 171 -1795 0 -1795 1 2 -741z"/>
<path d="M6730 21476 c-1 -15 -1 -1404 0 -1441 l0 -30 1778 2 c977 1 1785 2
1795 2 16 1 17 43 17 740 l0 739 -1795 0 c-1344 0 -1795 -3 -1795 -12z"/>
<path d="M29680 20749 c0 -697 1 -739 18 -740 139 -4 3564 0 3569 4 4 5 8
1351 4 1459 -1 15 -135 16 -1796 16 l-1795 0 0 -739z"/>
<path d="M6729 17941 c-4 -478 1 -1415 9 -1420 8 -4 3534 -6 3575 -2 4 1 7
333 7 739 l0 739 -1795 0 -1795 0 -1 -56z"/>
<path d="M29680 17258 c0 -406 3 -738 8 -739 42 -5 3567 -2 3574 2 7 5 10 241
10 725 0 396 -1 726 -1 735 -1 14 -164 16 -1796 16 l-1795 0 0 -739z"/>
<path d="M17516 12810 c-1 -3 -2 -1596 -1 -3540 1 -1944 0 -3540 -2 -3545 -2
-7 -704 -10 -2094 -10 -1150 0 -2094 -2 -2098 -5 -11 -8 -7 -1470 4 -1471 31
-5 13355 -4 13356 1 1 3 2 335 3 737 1 485 -2 733 -9 734 -5 1 -950 2 -2100 3
l-2090 1 0 3548 0 3547 -35 0 c-51 1 -1423 1 -1435 0 -7 0 -10 -1187 -10
-3547 l0 -3548 -995 -1 c-547 0 -1000 3 -1005 7 -7 5 -10 1196 -10 3548 0
3142 -2 3541 -15 3541 -170 4 -1463 4 -1464 0z"/>
</g>
</svg>
